<svg version="1.1" xmlns="http://www.w3.org/2000/svg" viewBox="0 0 223.58998948451713 245.12733905121488" width="223.58998948451713" height="245.12733905121488" class="excalidraw-svg"><!-- svg-source:excalidraw --><metadata></metadata><defs><style class="style-fonts">
      </style></defs><g stroke-linecap="round" transform="translate(30.77042811308536 140.89803154623365) rotate(0 26.104627118677115 25.12307203388454)"><path d="M35.58 2.32 C40.68 4.13, 47.67 9.12, 50.32 14.01 C52.96 18.9, 52.99 26.35, 51.45 31.63 C49.91 36.92, 45.46 42.55, 41.11 45.74 C36.75 48.93, 30.93 51.12, 25.32 50.77 C19.7 50.42, 11.66 47.4, 7.42 43.66 C3.19 39.92, 0.42 33.67, -0.1 28.34 C-0.62 23.02, 1.1 16.16, 4.31 11.73 C7.52 7.3, 13.51 3.37, 19.13 1.76 C24.76 0.15, 34.64 1.8, 38.08 2.07 C41.52 2.33, 39.85 2.81, 39.77 3.35 M25.13 -0.7 C30.09 -1.29, 36.71 2.85, 40.95 6.02 C45.2 9.2, 49.4 13.47, 50.57 18.36 C51.74 23.24, 50.12 30.22, 47.97 35.36 C45.82 40.5, 42.6 47.05, 37.69 49.18 C32.79 51.3, 24.18 49.72, 18.53 48.11 C12.89 46.5, 6.63 43.81, 3.8 39.52 C0.98 35.23, 0.93 28.07, 1.59 22.36 C2.26 16.64, 3.83 9.11, 7.81 5.23 C11.79 1.35, 22.67 0.02, 25.46 -0.92 C28.26 -1.86, 24.73 -1.06, 24.58 -0.4" stroke="none" stroke-width="0" fill="#1e1e1e"></path><path d="M18.14 1.96 C23.17 0.1, 31.58 0.26, 36.75 2.24 C41.93 4.22, 46.71 9.29, 49.19 13.83 C51.67 18.37, 52.85 24.16, 51.62 29.49 C50.4 34.82, 46.22 42.33, 41.85 45.81 C37.48 49.3, 30.87 50.62, 25.4 50.38 C19.92 50.14, 13.16 47.91, 9 44.38 C4.84 40.84, 1.2 34.51, 0.45 29.18 C-0.3 23.85, 0.9 17.07, 4.52 12.4 C8.15 7.73, 18.8 3.12, 22.19 1.16 C25.59 -0.8, 24.81 0.33, 24.88 0.65 M13.89 3.49 C18.25 1.1, 25.92 0.41, 31.39 1.28 C36.85 2.15, 43.28 4.69, 46.69 8.7 C50.09 12.72, 52.1 19.79, 51.82 25.38 C51.53 30.97, 48.47 38.07, 44.97 42.26 C41.47 46.45, 36.28 49.66, 30.82 50.53 C25.35 51.41, 17.19 50.65, 12.17 47.48 C7.15 44.31, 2.19 36.81, 0.71 31.53 C-0.78 26.25, 1.28 20.48, 3.27 15.8 C5.26 11.13, 10.95 5.44, 12.66 3.49 C14.36 1.55, 12.98 3.74, 13.49 4.14" stroke="#1e1e1e" stroke-width="2" fill="none"></path></g><g stroke-linecap="round" transform="translate(126.22582641820864 140.89803154623365) rotate(0 26.104627118677115 25.12307203388454)"><path d="M23.71 0.47 C29.15 -0.39, 36.33 0.83, 40.81 3.86 C45.28 6.89, 48.96 13.5, 50.55 18.63 C52.15 23.76, 52.48 29.9, 50.35 34.65 C48.23 39.39, 42.88 44.57, 37.79 47.08 C32.71 49.59, 25.21 51.02, 19.83 49.7 C14.46 48.37, 8.91 43.6, 5.55 39.14 C2.19 34.67, -0.53 28.29, -0.32 22.91 C-0.11 17.53, 1.87 10.49, 6.81 6.85 C11.76 3.21, 24.82 1.93, 29.35 1.06 C33.88 0.19, 34.16 1.27, 33.99 1.64 M36.4 0.63 C41.79 1.85, 47.02 7.66, 49.53 12.48 C52.03 17.31, 52.65 24.07, 51.43 29.58 C50.21 35.09, 46.39 42.09, 42.19 45.52 C37.99 48.95, 31.65 50.42, 26.21 50.16 C20.78 49.9, 13.67 47.42, 9.59 43.98 C5.52 40.54, 3 34.82, 1.78 29.54 C0.56 24.25, -0.11 16.79, 2.26 12.28 C4.62 7.76, 10.44 4.23, 15.95 2.43 C21.46 0.63, 32.15 1.34, 35.29 1.47 C38.43 1.6, 34.89 3.02, 34.79 3.21" stroke="none" stroke-width="0" fill="#1e1e1e"></path><path d="M35.01 1.04 C40.15 2.62, 46.21 8.19, 49.14 13.03 C52.07 17.87, 53.77 24.94, 52.6 30.08 C51.43 35.22, 46.47 40.54, 42.13 43.88 C37.8 47.22, 32.22 50.22, 26.6 50.14 C20.98 50.06, 12.62 46.77, 8.41 43.4 C4.2 40.04, 2.03 35.17, 1.33 29.94 C0.63 24.7, 1.68 16.63, 4.21 11.98 C6.73 7.33, 10.97 3.71, 16.49 2.06 C22 0.42, 33.25 1.69, 37.28 2.11 C41.31 2.53, 40.74 4.12, 40.67 4.57 M14.95 1.17 C19.9 -1.71, 27.77 -2.28, 32.95 -0.54 C38.13 1.21, 42.78 7.19, 46.05 11.66 C49.33 16.13, 52.66 21.29, 52.61 26.27 C52.55 31.24, 49.71 37.54, 45.71 41.51 C41.71 45.49, 34.16 49.56, 28.59 50.11 C23.02 50.66, 17.14 47.97, 12.29 44.82 C7.44 41.68, 1.36 36.39, -0.52 31.25 C-2.39 26.1, -1.57 18.9, 1.03 13.98 C3.64 9.05, 12.73 3.77, 15.09 1.71 C17.46 -0.35, 15.24 0.92, 15.21 1.62" stroke="#1e1e1e" stroke-width="2" fill="none"></path></g><g stroke-linecap="round" transform="translate(139.73353828267037 155.05497222424924) rotate(0 6.4292415254539605 6.104627118677087)"><path d="M12.86 6.1 C12.86 6.46, 12.83 6.82, 12.76 7.16 C12.7 7.51, 12.6 7.86, 12.47 8.19 C12.34 8.52, 12.18 8.85, 12 9.16 C11.81 9.46, 11.59 9.76, 11.35 10.03 C11.12 10.3, 10.85 10.55, 10.56 10.78 C10.28 11.01, 9.97 11.21, 9.64 11.39 C9.32 11.57, 8.98 11.72, 8.63 11.84 C8.28 11.96, 7.91 12.06, 7.55 12.12 C7.18 12.18, 6.8 12.21, 6.43 12.21 C6.06 12.21, 5.68 12.18, 5.31 12.12 C4.95 12.06, 4.58 11.96, 4.23 11.84 C3.88 11.72, 3.54 11.57, 3.21 11.39 C2.89 11.21, 2.58 11.01, 2.3 10.78 C2.01 10.55, 1.74 10.3, 1.5 10.03 C1.26 9.76, 1.05 9.46, 0.86 9.16 C0.68 8.85, 0.52 8.52, 0.39 8.19 C0.26 7.86, 0.16 7.51, 0.1 7.16 C0.03 6.82, 0 6.46, 0 6.1 C0 5.75, 0.03 5.39, 0.1 5.04 C0.16 4.7, 0.26 4.35, 0.39 4.02 C0.52 3.68, 0.68 3.36, 0.86 3.05 C1.05 2.75, 1.26 2.45, 1.5 2.18 C1.74 1.91, 2.01 1.66, 2.3 1.43 C2.58 1.2, 2.89 0.99, 3.21 0.82 C3.54 0.64, 3.88 0.49, 4.23 0.37 C4.58 0.25, 4.95 0.15, 5.31 0.09 C5.68 0.03, 6.06 0, 6.43 0 C6.8 0, 7.18 0.03, 7.55 0.09 C7.91 0.15, 8.28 0.25, 8.63 0.37 C8.98 0.49, 9.32 0.64, 9.64 0.82 C9.97 0.99, 10.28 1.2, 10.56 1.43 C10.85 1.66, 11.12 1.91, 11.35 2.18 C11.59 2.45, 11.81 2.75, 12 3.05 C12.18 3.36, 12.34 3.68, 12.47 4.02 C12.6 4.35, 12.7 4.7, 12.76 5.04 C12.83 5.39, 12.84 5.93, 12.86 6.1 C12.87 6.28, 12.87 5.93, 12.86 6.1" stroke="none" stroke-width="0" fill="#ffffff"></path><path d="M12.86 6.1 C12.86 6.46, 12.83 6.82, 12.76 7.16 C12.7 7.51, 12.6 7.86, 12.47 8.19 C12.34 8.52, 12.18 8.85, 12 9.16 C11.81 9.46, 11.59 9.76, 11.35 10.03 C11.12 10.3, 10.85 10.55, 10.56 10.78 C10.28 11.01, 9.97 11.21, 9.64 11.39 C9.32 11.57, 8.98 11.72, 8.63 11.84 C8.28 11.96, 7.91 12.06, 7.55 12.12 C7.18 12.18, 6.8 12.21, 6.43 12.21 C6.06 12.21, 5.68 12.18, 5.31 12.12 C4.95 12.06, 4.58 11.96, 4.23 11.84 C3.88 11.72, 3.54 11.57, 3.21 11.39 C2.89 11.21, 2.58 11.01, 2.3 10.78 C2.01 10.55, 1.74 10.3, 1.5 10.03 C1.26 9.76, 1.05 9.46, 0.86 9.16 C0.68 8.85, 0.52 8.52, 0.39 8.19 C0.26 7.86, 0.16 7.51, 0.1 7.16 C0.03 6.82, 0 6.46, 0 6.1 C0 5.75, 0.03 5.39, 0.1 5.04 C0.16 4.7, 0.26 4.35, 0.39 4.02 C0.52 3.68, 0.68 3.36, 0.86 3.05 C1.05 2.75, 1.26 2.45, 1.5 2.18 C1.74 1.91, 2.01 1.66, 2.3 1.43 C2.58 1.2, 2.89 0.99, 3.21 0.82 C3.54 0.64, 3.88 0.49, 4.23 0.37 C4.58 0.25, 4.95 0.15, 5.31 0.09 C5.68 0.03, 6.06 0, 6.43 0 C6.8 0, 7.18 0.03, 7.55 0.09 C7.91 0.15, 8.28 0.25, 8.63 0.37 C8.98 0.49, 9.32 0.64, 9.64 0.82 C9.97 0.99, 10.28 1.2, 10.56 1.43 C10.85 1.66, 11.12 1.91, 11.35 2.18 C11.59 2.45, 11.81 2.75, 12 3.05 C12.18 3.36, 12.34 3.68, 12.47 4.02 C12.6 4.35, 12.7 4.7, 12.76 5.04 C12.83 5.39, 12.84 5.93, 12.86 6.1 C12.87 6.28, 12.87 5.93, 12.86 6.1" stroke="#ffffff" stroke-width="2" fill="none"></path></g><g stroke-linecap="round" transform="translate(44.2781399775472 154.40574341069544) rotate(0 6.4292415254539605 6.104627118677087)"><path d="M12.86 6.1 C12.86 6.46, 12.83 6.82, 12.76 7.16 C12.7 7.51, 12.6 7.86, 12.47 8.19 C12.34 8.52, 12.18 8.85, 12 9.16 C11.81 9.46, 11.59 9.76, 11.35 10.03 C11.12 10.3, 10.85 10.55, 10.56 10.78 C10.28 11.01, 9.97 11.21, 9.64 11.39 C9.32 11.57, 8.98 11.72, 8.63 11.84 C8.28 11.96, 7.91 12.06, 7.55 12.12 C7.18 12.18, 6.8 12.21, 6.43 12.21 C6.06 12.21, 5.68 12.18, 5.31 12.12 C4.95 12.06, 4.58 11.96, 4.23 11.84 C3.88 11.72, 3.54 11.57, 3.21 11.39 C2.89 11.21, 2.58 11.01, 2.3 10.78 C2.01 10.55, 1.74 10.3, 1.5 10.03 C1.26 9.76, 1.05 9.46, 0.86 9.16 C0.68 8.85, 0.52 8.52, 0.39 8.19 C0.26 7.86, 0.16 7.51, 0.1 7.16 C0.03 6.82, 0 6.46, 0 6.1 C0 5.75, 0.03 5.39, 0.1 5.04 C0.16 4.7, 0.26 4.35, 0.39 4.02 C0.52 3.68, 0.68 3.36, 0.86 3.05 C1.05 2.75, 1.26 2.45, 1.5 2.18 C1.74 1.91, 2.01 1.66, 2.3 1.43 C2.58 1.2, 2.89 0.99, 3.21 0.82 C3.54 0.64, 3.88 0.49, 4.23 0.37 C4.58 0.25, 4.95 0.15, 5.31 0.09 C5.68 0.03, 6.06 0, 6.43 0 C6.8 0, 7.18 0.03, 7.55 0.09 C7.91 0.15, 8.28 0.25, 8.63 0.37 C8.98 0.49, 9.32 0.64, 9.64 0.82 C9.97 0.99, 10.28 1.2, 10.56 1.43 C10.85 1.66, 11.12 1.91, 11.35 2.18 C11.59 2.45, 11.81 2.75, 12 3.05 C12.18 3.36, 12.34 3.68, 12.47 4.02 C12.6 4.35, 12.7 4.7, 12.76 5.04 C12.83 5.39, 12.84 5.93, 12.86 6.1 C12.87 6.28, 12.87 5.93, 12.86 6.1" stroke="none" stroke-width="0" fill="#ffffff"></path><path d="M12.86 6.1 C12.86 6.46, 12.83 6.82, 12.76 7.16 C12.7 7.51, 12.6 7.86, 12.47 8.19 C12.34 8.52, 12.18 8.85, 12 9.16 C11.81 9.46, 11.59 9.76, 11.35 10.03 C11.12 10.3, 10.85 10.55, 10.56 10.78 C10.28 11.01, 9.97 11.21, 9.64 11.39 C9.32 11.57, 8.98 11.72, 8.63 11.84 C8.28 11.96, 7.91 12.06, 7.55 12.12 C7.18 12.18, 6.8 12.21, 6.43 12.21 C6.06 12.21, 5.68 12.18, 5.31 12.12 C4.95 12.06, 4.58 11.96, 4.23 11.84 C3.88 11.72, 3.54 11.57, 3.21 11.39 C2.89 11.21, 2.58 11.01, 2.3 10.78 C2.01 10.55, 1.74 10.3, 1.5 10.03 C1.26 9.76, 1.05 9.46, 0.86 9.16 C0.68 8.85, 0.52 8.52, 0.39 8.19 C0.26 7.86, 0.16 7.51, 0.1 7.16 C0.03 6.82, 0 6.46, 0 6.1 C0 5.75, 0.03 5.39, 0.1 5.04 C0.16 4.7, 0.26 4.35, 0.39 4.02 C0.52 3.68, 0.68 3.36, 0.86 3.05 C1.05 2.75, 1.26 2.45, 1.5 2.18 C1.74 1.91, 2.01 1.66, 2.3 1.43 C2.58 1.2, 2.89 0.99, 3.21 0.82 C3.54 0.64, 3.88 0.49, 4.23 0.37 C4.58 0.25, 4.95 0.15, 5.31 0.09 C5.68 0.03, 6.06 0, 6.43 0 C6.8 0, 7.18 0.03, 7.55 0.09 C7.91 0.15, 8.28 0.25, 8.63 0.37 C8.98 0.49, 9.32 0.64, 9.64 0.82 C9.97 0.99, 10.28 1.2, 10.56 1.43 C10.85 1.66, 11.12 1.91, 11.35 2.18 C11.59 2.45, 11.81 2.75, 12 3.05 C12.18 3.36, 12.34 3.68, 12.47 4.02 C12.6 4.35, 12.7 4.7, 12.76 5.04 C12.83 5.39, 12.84 5.93, 12.86 6.1 C12.87 6.28, 12.87 5.93, 12.86 6.1" stroke="#ffffff" stroke-width="2" fill="none"></path></g><g stroke-linecap="round" transform="translate(57.86285986363373 174.70626992211862) rotate(0 3.0851396518528986 3.0732211164134213)"><path d="M6.17 3.07 C6.17 3.25, 6.15 3.43, 6.12 3.61 C6.09 3.78, 6.05 3.96, 5.98 4.12 C5.92 4.29, 5.85 4.46, 5.76 4.61 C5.67 4.76, 5.56 4.91, 5.45 5.05 C5.33 5.18, 5.21 5.31, 5.07 5.43 C4.93 5.54, 4.78 5.65, 4.63 5.73 C4.47 5.82, 4.31 5.9, 4.14 5.96 C3.97 6.02, 3.8 6.07, 3.62 6.1 C3.45 6.13, 3.26 6.15, 3.09 6.15 C2.91 6.15, 2.73 6.13, 2.55 6.1 C2.37 6.07, 2.2 6.02, 2.03 5.96 C1.86 5.9, 1.7 5.82, 1.54 5.73 C1.39 5.65, 1.24 5.54, 1.1 5.43 C0.97 5.31, 0.84 5.18, 0.72 5.05 C0.61 4.91, 0.5 4.76, 0.41 4.61 C0.32 4.46, 0.25 4.29, 0.19 4.12 C0.12 3.96, 0.08 3.78, 0.05 3.61 C0.02 3.43, 0 3.25, 0 3.07 C0 2.9, 0.02 2.71, 0.05 2.54 C0.08 2.36, 0.12 2.19, 0.19 2.02 C0.25 1.85, 0.32 1.69, 0.41 1.54 C0.5 1.38, 0.61 1.23, 0.72 1.1 C0.84 0.96, 0.97 0.83, 1.1 0.72 C1.24 0.6, 1.39 0.5, 1.54 0.41 C1.7 0.32, 1.86 0.25, 2.03 0.19 C2.2 0.12, 2.37 0.08, 2.55 0.05 C2.73 0.02, 2.91 0, 3.09 0 C3.26 0, 3.45 0.02, 3.62 0.05 C3.8 0.08, 3.97 0.12, 4.14 0.19 C4.31 0.25, 4.47 0.32, 4.63 0.41 C4.78 0.5, 4.93 0.6, 5.07 0.72 C5.21 0.83, 5.33 0.96, 5.45 1.1 C5.56 1.23, 5.67 1.38, 5.76 1.54 C5.85 1.69, 5.92 1.85, 5.98 2.02 C6.05 2.19, 6.09 2.36, 6.12 2.54 C6.15 2.71, 6.16 2.98, 6.17 3.07 C6.18 3.16, 6.18 2.98, 6.17 3.07" stroke="none" stroke-width="0" fill="#ffffff"></path><path d="M6.17 3.07 C6.17 3.25, 6.15 3.43, 6.12 3.61 C6.09 3.78, 6.05 3.96, 5.98 4.12 C5.92 4.29, 5.85 4.46, 5.76 4.61 C5.67 4.76, 5.56 4.91, 5.45 5.05 C5.33 5.18, 5.21 5.31, 5.07 5.43 C4.93 5.54, 4.78 5.65, 4.63 5.73 C4.47 5.82, 4.31 5.9, 4.14 5.96 C3.97 6.02, 3.8 6.07, 3.62 6.1 C3.45 6.13, 3.26 6.15, 3.09 6.15 C2.91 6.15, 2.73 6.13, 2.55 6.1 C2.37 6.07, 2.2 6.02, 2.03 5.96 C1.86 5.9, 1.7 5.82, 1.54 5.73 C1.39 5.65, 1.24 5.54, 1.1 5.43 C0.97 5.31, 0.84 5.18, 0.72 5.05 C0.61 4.91, 0.5 4.76, 0.41 4.61 C0.32 4.46, 0.25 4.29, 0.19 4.12 C0.12 3.96, 0.08 3.78, 0.05 3.61 C0.02 3.43, 0 3.25, 0 3.07 C0 2.9, 0.02 2.71, 0.05 2.54 C0.08 2.36, 0.12 2.19, 0.19 2.02 C0.25 1.85, 0.32 1.69, 0.41 1.54 C0.5 1.38, 0.61 1.23, 0.72 1.1 C0.84 0.96, 0.97 0.83, 1.1 0.72 C1.24 0.6, 1.39 0.5, 1.54 0.41 C1.7 0.32, 1.86 0.25, 2.03 0.19 C2.2 0.12, 2.37 0.08, 2.55 0.05 C2.73 0.02, 2.91 0, 3.09 0 C3.26 0, 3.45 0.02, 3.62 0.05 C3.8 0.08, 3.97 0.12, 4.14 0.19 C4.31 0.25, 4.47 0.32, 4.63 0.41 C4.78 0.5, 4.93 0.6, 5.07 0.72 C5.21 0.83, 5.33 0.96, 5.45 1.1 C5.56 1.23, 5.67 1.38, 5.76 1.54 C5.85 1.69, 5.92 1.85, 5.98 2.02 C6.05 2.19, 6.09 2.36, 6.12 2.54 C6.15 2.71, 6.16 2.98, 6.17 3.07 C6.18 3.16, 6.18 2.98, 6.17 3.07" stroke="#ffffff" stroke-width="1" fill="none"></path></g><g stroke-linecap="round" transform="translate(153.32822649384337 174.61066098747506) rotate(0 3.0851396518528986 3.0732211164134213)"><path d="M6.17 3.07 C6.17 3.25, 6.15 3.43, 6.12 3.61 C6.09 3.78, 6.05 3.96, 5.98 4.12 C5.92 4.29, 5.85 4.46, 5.76 4.61 C5.67 4.76, 5.56 4.91, 5.45 5.05 C5.33 5.18, 5.21 5.31, 5.07 5.43 C4.93 5.54, 4.78 5.65, 4.63 5.73 C4.47 5.82, 4.31 5.9, 4.14 5.96 C3.97 6.02, 3.8 6.07, 3.62 6.1 C3.45 6.13, 3.26 6.15, 3.09 6.15 C2.91 6.15, 2.73 6.13, 2.55 6.1 C2.37 6.07, 2.2 6.02, 2.03 5.96 C1.86 5.9, 1.7 5.82, 1.54 5.73 C1.39 5.65, 1.24 5.54, 1.1 5.43 C0.97 5.31, 0.84 5.18, 0.72 5.05 C0.61 4.91, 0.5 4.76, 0.41 4.61 C0.32 4.46, 0.25 4.29, 0.19 4.12 C0.12 3.96, 0.08 3.78, 0.05 3.61 C0.02 3.43, 0 3.25, 0 3.07 C0 2.9, 0.02 2.71, 0.05 2.54 C0.08 2.36, 0.12 2.19, 0.19 2.02 C0.25 1.85, 0.32 1.69, 0.41 1.54 C0.5 1.38, 0.61 1.23, 0.72 1.1 C0.84 0.96, 0.97 0.83, 1.1 0.72 C1.24 0.6, 1.39 0.5, 1.54 0.41 C1.7 0.32, 1.86 0.25, 2.03 0.19 C2.2 0.12, 2.37 0.08, 2.55 0.05 C2.73 0.02, 2.91 0, 3.09 0 C3.26 0, 3.45 0.02, 3.62 0.05 C3.8 0.08, 3.97 0.12, 4.14 0.19 C4.31 0.25, 4.47 0.32, 4.63 0.41 C4.78 0.5, 4.93 0.6, 5.07 0.72 C5.21 0.83, 5.33 0.96, 5.45 1.1 C5.56 1.23, 5.67 1.38, 5.76 1.54 C5.85 1.69, 5.92 1.85, 5.98 2.02 C6.05 2.19, 6.09 2.36, 6.12 2.54 C6.15 2.71, 6.16 2.98, 6.17 3.07 C6.18 3.16, 6.18 2.98, 6.17 3.07" stroke="none" stroke-width="0" fill="#ffffff"></path><path d="M6.17 3.07 C6.17 3.25, 6.15 3.43, 6.12 3.61 C6.09 3.78, 6.05 3.96, 5.98 4.12 C5.92 4.29, 5.85 4.46, 5.76 4.61 C5.67 4.76, 5.56 4.91, 5.45 5.05 C5.33 5.18, 5.21 5.31, 5.07 5.43 C4.93 5.54, 4.78 5.65, 4.63 5.73 C4.47 5.82, 4.31 5.9, 4.14 5.96 C3.97 6.02, 3.8 6.07, 3.62 6.1 C3.45 6.13, 3.26 6.15, 3.09 6.15 C2.91 6.15, 2.73 6.13, 2.55 6.1 C2.37 6.07, 2.2 6.02, 2.03 5.96 C1.86 5.9, 1.7 5.82, 1.54 5.73 C1.39 5.65, 1.24 5.54, 1.1 5.43 C0.97 5.31, 0.84 5.18, 0.72 5.05 C0.61 4.91, 0.5 4.76, 0.41 4.61 C0.32 4.46, 0.25 4.29, 0.19 4.12 C0.12 3.96, 0.08 3.78, 0.05 3.61 C0.02 3.43, 0 3.25, 0 3.07 C0 2.9, 0.02 2.71, 0.05 2.54 C0.08 2.36, 0.12 2.19, 0.19 2.02 C0.25 1.85, 0.32 1.69, 0.41 1.54 C0.5 1.38, 0.61 1.23, 0.72 1.1 C0.84 0.96, 0.97 0.83, 1.1 0.72 C1.24 0.6, 1.39 0.5, 1.54 0.41 C1.7 0.32, 1.86 0.25, 2.03 0.19 C2.2 0.12, 2.37 0.08, 2.55 0.05 C2.73 0.02, 2.91 0, 3.09 0 C3.26 0, 3.45 0.02, 3.62 0.05 C3.8 0.08, 3.97 0.12, 4.14 0.19 C4.31 0.25, 4.47 0.32, 4.63 0.41 C4.78 0.5, 4.93 0.6, 5.07 0.72 C5.21 0.83, 5.33 0.96, 5.45 1.1 C5.56 1.23, 5.67 1.38, 5.76 1.54 C5.85 1.69, 5.92 1.85, 5.98 2.02 C6.05 2.19, 6.09 2.36, 6.12 2.54 C6.15 2.71, 6.16 2.98, 6.17 3.07 C6.18 3.16, 6.18 2.98, 6.17 3.07" stroke="#ffffff" stroke-width="1" fill="none"></path></g><g stroke-linecap="round"><g transform="translate(10 80.89803154623371) rotate(0 96.73003805603842 41.69965362927353)"><path d="M0 0 C0.59 10, -1.05 38.13, 3.52 60 C8.09 81.87, 12.3 115.49, 27.42 131.19 C42.53 146.9, 71.99 153.71, 94.21 154.21 C116.44 154.72, 146.67 143.52, 160.75 134.21 C174.84 124.9, 175.01 109.35, 178.74 98.36 C182.47 87.38, 180.69 81.07, 183.14 68.3 C185.59 55.54, 193.6 33.82, 193.46 21.76 C193.31 9.71, 186.16 -0.52, 182.26 -4.03 C178.37 -7.53, 173.98 6.58, 170.06 0.75 C166.14 -5.07, 165.83 -30.9, 158.74 -38.99 C151.66 -47.09, 136.25 -48.15, 127.55 -47.8 C118.84 -47.45, 111.95 -41.23, 106.52 -36.89 C101.09 -32.55, 97.36 -19.79, 94.97 -21.76 C92.58 -23.73, 93.73 -40.73, 92.18 -48.71 C90.63 -56.7, 90.71 -66.67, 85.66 -69.68 C80.61 -72.7, 70.2 -69.07, 61.89 -66.79 C53.58 -64.51, 41.34 -64.22, 35.82 -56.01 C30.3 -47.8, 29 -30.23, 28.77 -17.52 C28.55 -4.8, 35.14 19.96, 34.46 20.25 C33.79 20.55, 28.83 -9.51, 24.75 -15.75 C20.66 -22, 14.06 -19.86, 9.94 -17.23 C5.81 -14.61, 1.66 -2.87, 0 0 M0 0 C0.59 10, -1.05 38.13, 3.52 60 C8.09 81.87, 12.3 115.49, 27.42 131.19 C42.53 146.9, 71.99 153.71, 94.21 154.21 C116.44 154.72, 146.67 143.52, 160.75 134.21 C174.84 124.9, 175.01 109.35, 178.74 98.36 C182.47 87.38, 180.69 81.07, 183.14 68.3 C185.59 55.54, 193.6 33.82, 193.46 21.76 C193.31 9.71, 186.16 -0.52, 182.26 -4.03 C178.37 -7.53, 173.98 6.58, 170.06 0.75 C166.14 -5.07, 165.83 -30.9, 158.74 -38.99 C151.66 -47.09, 136.25 -48.15, 127.55 -47.8 C118.84 -47.45, 111.95 -41.23, 106.52 -36.89 C101.09 -32.55, 97.36 -19.79, 94.97 -21.76 C92.58 -23.73, 93.73 -40.73, 92.18 -48.71 C90.63 -56.7, 90.71 -66.67, 85.66 -69.68 C80.61 -72.7, 70.2 -69.07, 61.89 -66.79 C53.58 -64.51, 41.34 -64.22, 35.82 -56.01 C30.3 -47.8, 29 -30.23, 28.77 -17.52 C28.55 -4.8, 35.14 19.96, 34.46 20.25 C33.79 20.55, 28.83 -9.51, 24.75 -15.75 C20.66 -22, 14.06 -19.86, 9.94 -17.23 C5.81 -14.61, 1.66 -2.87, 0 0" stroke="#1e1e1e" stroke-width="4" fill="none"></path></g></g><mask></mask><g stroke-linecap="round"><g transform="translate(19.653217923982595 64.80606902928702) rotate(0 3.538349255935259 18.00165067442404)"><path d="M0 0 C1.06 2.23, 5.21 7.38, 6.37 13.38 C7.53 19.38, 6.88 32.23, 6.99 36 M0 0 C1.06 2.23, 5.21 7.38, 6.37 13.38 C7.53 19.38, 6.88 32.23, 6.99 36" stroke="#1e1e1e" stroke-width="4" fill="none"></path></g></g><mask></mask><g stroke-linecap="round"><g transform="translate(74.07612852297387 13.378581325749508) rotate(0 -1.5153536809875732 23.36373839926759)" fill-rule="evenodd"><path d="M0 0 C-0.1 4.09, -0.29 16.69, -0.58 24.55 C-0.87 32.4, -1.32 47.51, -1.72 47.13 C-2.12 46.75, -2.83 29.83, -2.97 22.27 C-3.1 14.7, -3.05 5.46, -2.55 1.75 C-2.06 -1.96, -0.43 0.29, 0 0" stroke="none" stroke-width="0" fill="#1e1e1e" fill-rule="evenodd"></path><path d="M0 0 C-0.1 4.09, -0.29 16.69, -0.58 24.55 C-0.87 32.4, -1.32 47.51, -1.72 47.13 C-2.12 46.75, -2.83 29.83, -2.97 22.27 C-3.1 14.7, -3.05 5.46, -2.55 1.75 C-2.06 -1.96, -0.43 0.29, 0 0 M0 0 C-0.1 4.09, -0.29 16.69, -0.58 24.55 C-0.87 32.4, -1.32 47.51, -1.72 47.13 C-2.12 46.75, -2.83 29.83, -2.97 22.27 C-3.1 14.7, -3.05 5.46, -2.55 1.75 C-2.06 -1.96, -0.43 0.29, 0 0" stroke="#1e1e1e" stroke-width="0.5" fill="none"></path></g></g><mask></mask><g stroke-linecap="round"><g transform="translate(80.2672498202449 13.177879014072516) rotate(0 6.428133114050581 50.05086724357264)" fill-rule="evenodd"><path d="M0 0 C0.92 -0.16, 4.82 -6.37, 5.51 -0.99 C6.19 4.4, 3.92 21.07, 4.12 32.3 C4.32 43.53, 5.33 57.56, 6.69 66.41 C8.05 75.25, 11.4 79.23, 12.28 85.37 C13.17 91.5, 12.98 104.4, 12.02 103.2 C11.06 102, 7.65 79.79, 6.53 78.15 C5.4 76.51, 6.1 95.81, 5.27 93.35 C4.45 90.89, 2.39 75.07, 1.58 63.39 C0.77 51.71, 0.68 33.85, 0.41 23.28 C0.15 12.72, 0.07 3.88, 0 0" stroke="none" stroke-width="0" fill="#1e1e1e" fill-rule="evenodd"></path><path d="M0 0 C0.92 -0.16, 4.82 -6.37, 5.51 -0.99 C6.19 4.4, 3.92 21.07, 4.12 32.3 C4.32 43.53, 5.33 57.56, 6.69 66.41 C8.05 75.25, 11.4 79.23, 12.28 85.37 C13.17 91.5, 12.98 104.4, 12.02 103.2 C11.06 102, 7.65 79.79, 6.53 78.15 C5.4 76.51, 6.1 95.81, 5.27 93.35 C4.45 90.89, 2.39 75.07, 1.58 63.39 C0.77 51.71, 0.68 33.85, 0.41 23.28 C0.15 12.72, 0.07 3.88, 0 0 M0 0 C0.92 -0.16, 4.82 -6.37, 5.51 -0.99 C6.19 4.4, 3.92 21.07, 4.12 32.3 C4.32 43.53, 5.33 57.56, 6.69 66.41 C8.05 75.25, 11.4 79.23, 12.28 85.37 C13.17 91.5, 12.98 104.4, 12.02 103.2 C11.06 102, 7.65 79.79, 6.53 78.15 C5.4 76.51, 6.1 95.81, 5.27 93.35 C4.45 90.89, 2.39 75.07, 1.58 63.39 C0.77 51.71, 0.68 33.85, 0.41 23.28 C0.15 12.72, 0.07 3.88, 0 0" stroke="#1e1e1e" stroke-width="0.5" fill="none"></path></g></g><mask></mask><g stroke-linecap="round"><g transform="translate(145.72938880108978 34.97540533844301) rotate(0 -5.416235479072512 31.74102452672929)" fill-rule="evenodd"><path d="M0 0 C-0.58 2.47, -2.34 7.32, -3.5 14.8 C-4.66 22.28, -5.77 36.49, -6.98 44.88 C-8.19 53.27, -10.36 68.76, -10.75 65.14 C-11.15 61.52, -9.97 34.13, -9.34 23.17 C-8.72 12.22, -8.55 3.26, -6.99 -0.6 C-5.43 -4.47, -1.17 -0.1, 0 0" stroke="none" stroke-width="0" fill="#1e1e1e" fill-rule="evenodd"></path><path d="M0 0 C-0.58 2.47, -2.34 7.32, -3.5 14.8 C-4.66 22.28, -5.77 36.49, -6.98 44.88 C-8.19 53.27, -10.36 68.76, -10.75 65.14 C-11.15 61.52, -9.97 34.13, -9.34 23.17 C-8.72 12.22, -8.55 3.26, -6.99 -0.6 C-5.43 -4.47, -1.17 -0.1, 0 0 M0 0 C-0.58 2.47, -2.34 7.32, -3.5 14.8 C-4.66 22.28, -5.77 36.49, -6.98 44.88 C-8.19 53.27, -10.36 68.76, -10.75 65.14 C-11.15 61.52, -9.97 34.13, -9.34 23.17 C-8.72 12.22, -8.55 3.26, -6.99 -0.6 C-5.43 -4.47, -1.17 -0.1, 0 0" stroke="#1e1e1e" stroke-width="0.5" fill="none"></path></g></g><mask></mask><g stroke-linecap="round"><g transform="translate(167.17203375015055 40.89803154623365) rotate(0 -4.916546317832498 13.264582050343137)" fill-rule="evenodd"><path d="M0 0 C0.64 1.81, 6.14 6.44, 3.81 10.86 C1.48 15.28, -12.43 26.48, -14 26.53 C-15.58 26.58, -7.97 15.59, -5.63 11.16 C-3.3 6.74, -0.94 1.86, 0 0" stroke="none" stroke-width="0" fill="#1e1e1e" fill-rule="evenodd"></path><path d="M0 0 C0.64 1.81, 6.14 6.44, 3.81 10.86 C1.48 15.28, -12.43 26.48, -14 26.53 C-15.58 26.58, -7.97 15.59, -5.63 11.16 C-3.3 6.74, -0.94 1.86, 0 0 M0 0 C0.64 1.81, 6.14 6.44, 3.81 10.86 C1.48 15.28, -12.43 26.48, -14 26.53 C-15.58 26.58, -7.97 15.59, -5.63 11.16 C-3.3 6.74, -0.94 1.86, 0 0" stroke="#1e1e1e" stroke-width="0.5" fill="none"></path></g></g><mask></mask><g stroke-linecap="round"><g transform="translate(189.3225361644595 78.45271710708187) rotate(0 0.3474424179147064 15.043919341949248)" fill-rule="evenodd"><path d="M0 0 C0.08 1.3, 1.38 2.54, 0.46 7.82 C-0.45 13.1, -5.36 29.16, -5.49 31.69 C-5.62 34.23, -2.26 27.28, -0.33 23.03 C1.6 18.78, 5.43 10.36, 6.07 6.21 C6.71 2.05, 4.54 -0.87, 3.53 -1.9 C2.52 -2.94, 0.59 -0.32, 0 0" stroke="none" stroke-width="0" fill="#1e1e1e" fill-rule="evenodd"></path><path d="M0 0 C0.08 1.3, 1.38 2.54, 0.46 7.82 C-0.45 13.1, -5.36 29.16, -5.49 31.69 C-5.62 34.23, -2.26 27.28, -0.33 23.03 C1.6 18.78, 5.43 10.36, 6.07 6.21 C6.71 2.05, 4.54 -0.87, 3.53 -1.9 C2.52 -2.94, 0.59 -0.32, 0 0 M0 0 C0.08 1.3, 1.38 2.54, 0.46 7.82 C-0.45 13.1, -5.36 29.16, -5.49 31.69 C-5.62 34.23, -2.26 27.28, -0.33 23.03 C1.6 18.78, 5.43 10.36, 6.07 6.21 C6.71 2.05, 4.54 -0.87, 3.53 -1.9 C2.52 -2.94, 0.59 -0.32, 0 0" stroke="#1e1e1e" stroke-width="0.5" fill="none"></path></g></g><mask></mask><g stroke-linecap="round"><g transform="translate(194.32787950451507 86.290762895071) rotate(0 -0.03260306462723861 22.042841701844992)" fill-rule="evenodd"><path d="M0 0 C0.11 1.92, 1.17 8.25, 0.68 11.5 C0.19 14.76, -1.51 13.59, -2.95 19.52 C-4.38 25.45, -8.37 45.88, -7.92 47.06 C-7.48 48.24, -2.25 31.46, -0.28 26.6 C1.69 21.74, 2.54 19.69, 3.9 17.9 C5.26 16.11, 8.03 19.23, 7.89 15.88 C7.74 12.53, 4.34 0.44, 3.02 -2.2 C1.71 -4.85, 0.5 -0.37, 0 0" stroke="none" stroke-width="0" fill="#1e1e1e" fill-rule="evenodd"></path><path d="M0 0 C0.11 1.92, 1.17 8.25, 0.68 11.5 C0.19 14.76, -1.51 13.59, -2.95 19.52 C-4.38 25.45, -8.37 45.88, -7.92 47.06 C-7.48 48.24, -2.25 31.46, -0.28 26.6 C1.69 21.74, 2.54 19.69, 3.9 17.9 C5.26 16.11, 8.03 19.23, 7.89 15.88 C7.74 12.53, 4.34 0.44, 3.02 -2.2 C1.71 -4.85, 0.5 -0.37, 0 0 M0 0 C0.11 1.92, 1.17 8.25, 0.68 11.5 C0.19 14.76, -1.51 13.59, -2.95 19.52 C-4.38 25.45, -8.37 45.88, -7.92 47.06 C-7.48 48.24, -2.25 31.46, -0.28 26.6 C1.69 21.74, 2.54 19.69, 3.9 17.9 C5.26 16.11, 8.03 19.23, 7.89 15.88 C7.74 12.53, 4.34 0.44, 3.02 -2.2 C1.71 -4.85, 0.5 -0.37, 0 0" stroke="#1e1e1e" stroke-width="0.5" fill="none"></path></g></g><mask></mask><g stroke-linecap="round"><g transform="translate(174.61684010405685 53.346119228970224) rotate(0 19.486574690230142 8.391941620336667)" fill-rule="evenodd"><path d="M0 0 C1.57 -1.32, 6.82 -6.36, 9.41 -7.94 C11.99 -9.52, 13.71 -9.6, 15.5 -9.48 C17.3 -9.35, 17.25 -6.81, 20.18 -7.2 C23.11 -7.6, 30.03 -13.29, 33.08 -11.85 C36.13 -10.41, 40.45 -3.36, 38.47 1.43 C36.49 6.22, 24 12.61, 21.19 16.88 C18.37 21.14, 22.72 25.72, 21.58 27.02 C20.45 28.33, 16.97 24.65, 14.36 24.74 C11.76 24.83, 8.35 31.67, 5.96 27.55 C3.56 23.43, 0.99 4.59, 0 0" stroke="none" stroke-width="0" fill="#1e1e1e" fill-rule="evenodd"></path><path d="M0 0 C1.57 -1.32, 6.82 -6.36, 9.41 -7.94 C11.99 -9.52, 13.71 -9.6, 15.5 -9.48 C17.3 -9.35, 17.25 -6.81, 20.18 -7.2 C23.11 -7.6, 30.03 -13.29, 33.08 -11.85 C36.13 -10.41, 40.45 -3.36, 38.47 1.43 C36.49 6.22, 24 12.61, 21.19 16.88 C18.37 21.14, 22.72 25.72, 21.58 27.02 C20.45 28.33, 16.97 24.65, 14.36 24.74 C11.76 24.83, 8.35 31.67, 5.96 27.55 C3.56 23.43, 0.99 4.59, 0 0 M0 0 C1.57 -1.32, 6.82 -6.36, 9.41 -7.94 C11.99 -9.52, 13.71 -9.6, 15.5 -9.48 C17.3 -9.35, 17.25 -6.81, 20.18 -7.2 C23.11 -7.6, 30.03 -13.29, 33.08 -11.85 C36.13 -10.41, 40.45 -3.36, 38.47 1.43 C36.49 6.22, 24 12.61, 21.19 16.88 C18.37 21.14, 22.72 25.72, 21.58 27.02 C20.45 28.33, 16.97 24.65, 14.36 24.74 C11.76 24.83, 8.35 31.67, 5.96 27.55 C3.56 23.43, 0.99 4.59, 0 0" stroke="#1e1e1e" stroke-width="0.5" fill="none"></path></g></g><mask></mask><g stroke-linecap="round"><g transform="translate(83.35430475820112 212.76205350954564) rotate(0 19.880353264166345 1.0780225150118241)"><path d="M0 0 C3.31 0.44, 13.24 2.71, 19.87 2.63 C26.5 2.55, 36.45 0.04, 39.76 -0.48 M0 0 C3.31 0.44, 13.24 2.71, 19.87 2.63 C26.5 2.55, 36.45 0.04, 39.76 -0.48" stroke="#1e1e1e" stroke-width="4" fill="none"></path></g></g><mask></mask></svg>